PathFileType	4	(X/Y/Z)	 1.9Hzhigh3min.trc
DataRate	CameraRate	NumFrames	NumMarkers	Units	OrigDataRate	OrigDataStartFrame	OrigNumFrames
200	200	11	35	m	200	126	1000
Frame#	Time	C7			LSH			RSH			MAN			RASI			LASI			HIPR			HIPL			RPSI			LPSI			COX			RTHI1			RTHI2			RTHI3			RTHI4			RSHA1			RSHA2			RSHA3			RSHA4			RHEEL			RMET5			RMET1			RTOE			LTHI1			LTHI2			LTHI3			LTHI4			LSHA1			LSHA2			LSHA3			LSHA4			LHEEL			LMET5			LMET1			LTOE			
		X1	Y1	Z1	X2	Y2	Z2	X3	Y3	Z3	X4	Y4	Z4	X5	Y5	Z5	X6	Y6	Z6	X7	Y7	Z7	X8	Y8	Z8	X9	Y9	Z9	X10	Y10	Z10	X11	Y11	Z11	X12	Y12	Z12	X13	Y13	Z13	X14	Y14	Z14	X15	Y15	Z15	X16	Y16	Z16	X17	Y17	Z17	X18	Y18	Z18	X19	Y19	Z19	X20	Y20	Z20	X21	Y21	Z21	X22	Y22	Z22	X23	Y23	Z23	X24	Y24	Z24	X25	Y25	Z25	X26	Y26	Z26	X27	Y27	Z27	X28	Y28	Z28	X29	Y29	Z29	X30	Y30	Z30	X31	Y31	Z31	X32	Y32	Z32	X33	Y33	Z33	X34	Y34	Z34	X35	Y35	Z35	
126	0.6300	-0.339100	1.618059	-0.541758	-0.294729	1.601144	-0.767416	-0.271348	1.599253	-0.338005	-0.189047	1.556755	-0.551558	-0.195968	1.107143	-0.428396	-0.186390	1.100541	-0.642448	-0.249049	1.158789	-0.382238	-0.245712	1.153348	-0.704715	-0.376102	1.141532	-0.486492	-0.378013	1.134483	-0.600049	-0.383375	1.147321	-0.539717	-0.284970	0.855880	-0.345319	-0.268153	0.800629	-0.330227	-0.205555	0.818352	-0.323489	-0.214999	0.876969	-0.339943	-0.372325	0.407893	-0.330649	-0.376091	0.367145	-0.343600	-0.316491	0.365432	-0.331228	-0.316028	0.404310	-0.323179	-0.484322	0.104059	-0.420525	-0.324275	0.027668	-0.327606	-0.270493	0.041018	-0.410072	-0.242455	0.029574	-0.406056	-0.235982	0.844277	-0.752252	-0.218527	0.785460	-0.759962	-0.156247	0.796663	-0.747844	-0.164800	0.855747	-0.738743	-0.312636	0.398508	-0.752985	-0.333848	0.364197	-0.749394	-0.277659	0.338476	-0.736918	-0.262963	0.379923	-0.742828	-0.482459	0.108986	-0.669639	-0.320012	0.026548	-0.745812	-0.265410	0.037087	-0.663047	-0.238319	0.027882	-0.667718	
127	0.6350	-0.339307	1.625115	-0.542184	-0.294737	1.608829	-0.767532	-0.271417	1.607157	-0.338587	-0.189182	1.564440	-0.551921	-0.194357	1.114763	-0.428388	-0.184592	1.108302	-0.642125	-0.247105	1.166532	-0.382533	-0.243686	1.161336	-0.704524	-0.374402	1.148837	-0.486465	-0.376215	1.141713	-0.600283	-0.381744	1.154374	-0.539840	-0.285205	0.863371	-0.345315	-0.268987	0.807925	-0.330211	-0.206189	0.824895	-0.323764	-0.214938	0.883613	-0.340193	-0.375407	0.413312	-0.331275	-0.378644	0.372463	-0.344044	-0.319166	0.371361	-0.331248	-0.319168	0.410289	-0.323356	-0.482424	0.108522	-0.419984	-0.324182	0.027929	-0.328079	-0.270468	0.041076	-0.409963	-0.242697	0.029607	-0.406009	-0.235685	0.851592	-0.752415	-0.218764	0.792619	-0.760111	-0.156422	0.803226	-0.747786	-0.164447	0.862376	-0.738704	-0.314500	0.404108	-0.753213	-0.335291	0.369544	-0.749624	-0.278737	0.344431	-0.737523	-0.264544	0.386063	-0.743361	-0.480278	0.113553	-0.670405	-0.319652	0.026883	-0.745302	-0.265306	0.037142	-0.663239	-0.238407	0.027909	-0.667746	
128	0.6400	-0.339524	1.632193	-0.542617	-0.294698	1.616508	-0.767632	-0.271471	1.615048	-0.339182	-0.189358	1.572162	-0.552276	-0.192787	1.122408	-0.428421	-0.182891	1.116157	-0.641870	-0.245378	1.174428	-0.382756	-0.241783	1.169449	-0.704420	-0.372751	1.156246	-0.486452	-0.374465	1.149053	-0.600518	-0.380157	1.161559	-0.539968	-0.285349	0.870906	-0.345258	-0.269713	0.815257	-0.330145	-0.206730	0.831498	-0.324008	-0.214808	0.890315	-0.340394	-0.378304	0.418866	-0.331907	-0.381010	0.377954	-0.344448	-0.321674	0.377434	-0.331191	-0.322135	0.416439	-0.323433	-0.480224	0.113267	-0.419385	-0.324025	0.028226	-0.328553	-0.270428	0.041142	-0.409776	-0.242947	0.029657	-0.405897	-0.235307	0.858963	-0.752606	-0.218880	0.799840	-0.760266	-0.156499	0.809896	-0.747717	-0.164037	0.869108	-0.738678	-0.316081	0.409801	-0.753484	-0.336448	0.374985	-0.749905	-0.279535	0.350518	-0.738141	-0.265864	0.392318	-0.743896	-0.477828	0.118329	-0.671337	-0.319236	0.027247	-0.744819	-0.265195	0.037237	-0.663475	-0.238489	0.027941	-0.667799	
129	0.6450	-0.339744	1.639264	-0.543053	-0.294620	1.624156	-0.767715	-0.271506	1.622887	-0.339790	-0.189572	1.579894	-0.552621	-0.191259	1.130038	-0.428497	-0.181297	1.124044	-0.641681	-0.243734	1.182418	-0.382995	-0.240049	1.177621	-0.704368	-0.371155	1.163732	-0.486452	-0.372768	1.156485	-0.600739	-0.378621	1.168852	-0.540088	-0.285416	0.878446	-0.345156	-0.270346	0.822597	-0.330080	-0.207172	0.838140	-0.324217	-0.214639	0.897099	-0.340528	-0.381001	0.424546	-0.332542	-0.383181	0.383566	-0.344852	-0.323981	0.383642	-0.331035	-0.324908	0.422720	-0.323431	-0.477699	0.118240	-0.418705	-0.323825	0.028549	-0.329003	-0.270360	0.041244	-0.409525	-0.243205	0.029725	-0.405715	-0.234900	0.866336	-0.752808	-0.218931	0.807074	-0.760415	-0.156519	0.816626	-0.747660	-0.163609	0.875897	-0.738670	-0.317388	0.415600	-0.753776	-0.337325	0.380535	-0.750226	-0.280065	0.356727	-0.738779	-0.266926	0.398688	-0.744426	-0.475101	0.123272	-0.672432	-0.318873	0.027577	-0.744305	-0.265069	0.037378	-0.663749	-0.238560	0.027985	-0.667880	
130	0.6500	-0.339964	1.646293	-0.543487	-0.294510	1.631737	-0.767775	-0.271524	1.630648	-0.340398	-0.189818	1.587612	-0.552957	-0.189773	1.137625	-0.428616	-0.179815	1.131903	-0.641552	-0.242173	1.190474	-0.383258	-0.238473	1.185798	-0.704368	-0.369620	1.171273	-0.486449	-0.371131	1.163983	-0.600933	-0.377135	1.176230	-0.540200	-0.285426	0.885950	-0.345028	-0.270900	0.829906	-0.330027	-0.207555	0.844797	-0.324402	-0.214432	0.903853	-0.340601	-0.383481	0.430269	-0.333212	-0.385130	0.389246	-0.345261	-0.326068	0.389929	-0.330835	-0.327453	0.429081	-0.323378	-0.474851	0.123413	-0.417937	-0.323571	0.028927	-0.329439	-0.270249	0.041388	-0.409224	-0.243465	0.029808	-0.405461	-0.234517	0.873655	-0.753002	-0.218961	0.814271	-0.760547	-0.156520	0.823369	-0.747625	-0.163197	0.882692	-0.738693	-0.318437	0.421506	-0.754071	-0.337939	0.386180	-0.750579	-0.280340	0.363050	-0.739446	-0.267738	0.405166	-0.744954	-0.472093	0.128354	-0.673685	-0.318508	0.027944	-0.743856	-0.264906	0.037568	-0.664045	-0.238610	0.028041	-0.667992	
131	0.6550	-0.340178	1.653248	-0.543909	-0.294371	1.639229	-0.767808	-0.271517	1.638302	-0.340992	-0.190080	1.595278	-0.553282	-0.188329	1.145133	-0.428776	-0.178451	1.139673	-0.641478	-0.240698	1.198543	-0.383531	-0.237047	1.193939	-0.704399	-0.368147	1.178828	-0.486440	-0.369562	1.171515	-0.601097	-0.375700	1.183673	-0.540298	-0.285401	0.893378	-0.344883	-0.271384	0.837163	-0.329948	-0.207886	0.851427	-0.324564	-0.214215	0.910610	-0.340640	-0.385691	0.435986	-0.333893	-0.386818	0.394949	-0.345656	-0.327906	0.396246	-0.330640	-0.329746	0.435458	-0.323287	-0.471675	0.128739	-0.417078	-0.323267	0.029383	-0.329863	-0.270058	0.041586	-0.408883	-0.243713	0.029899	-0.405144	-0.234179	0.880884	-0.753177	-0.218998	0.821390	-0.760649	-0.156520	0.830095	-0.747612	-0.162831	0.889456	-0.738747	-0.319250	0.427496	-0.754356	-0.338298	0.391909	-0.750956	-0.280379	0.369464	-0.740151	-0.268319	0.411731	-0.745480	-0.468805	0.133565	-0.675082	-0.318137	0.028374	-0.743479	-0.264688	0.037812	-0.664350	-0.238627	0.028114	-0.668132	
132	0.6600	-0.340383	1.660107	-0.544313	-0.294221	1.646607	-0.767814	-0.271492	1.645792	-0.341599	-0.190343	1.602860	-0.553592	-0.186929	1.152535	-0.428970	-0.177206	1.147299	-0.641453	-0.239233	1.206536	-0.383866	-0.235756	1.201998	-0.704460	-0.366732	1.186365	-0.486428	-0.368059	1.179049	-0.601236	-0.374321	1.191151	-0.540369	-0.285362	0.900700	-0.344736	-0.271819	0.844330	-0.329912	-0.208178	0.858005	-0.324723	-0.214009	0.917323	-0.340624	-0.387652	0.441658	-0.334552	-0.388227	0.400613	-0.346047	-0.329473	0.402554	-0.330429	-0.331774	0.441811	-0.323201	-0.468191	0.134175	-0.416165	-0.322914	0.029936	-0.330273	-0.269769	0.041871	-0.408500	-0.243923	0.030021	-0.404773	-0.233907	0.887988	-0.753319	-0.219053	0.828402	-0.760708	-0.156537	0.836765	-0.747612	-0.162524	0.896167	-0.738820	-0.319840	0.433527	-0.754626	-0.338425	0.397677	-0.751360	-0.280189	0.375931	-0.740888	-0.268685	0.418347	-0.746010	-0.465233	0.138862	-0.676602	-0.317725	0.028858	-0.743141	-0.264396	0.038095	-0.664644	-0.238594	0.028198	-0.668290	
133	0.6650	-0.340575	1.666837	-0.544697	-0.294068	1.653850	-0.767790	-0.271476	1.653147	-0.342221	-0.190597	1.610332	-0.553888	-0.185579	1.159807	-0.429184	-0.176075	1.154749	-0.641470	-0.237768	1.214383	-0.384266	-0.234592	1.209929	-0.704535	-0.365379	1.193855	-0.486407	-0.366622	1.186546	-0.601354	-0.372995	1.198629	-0.540416	-0.285325	0.907883	-0.344589	-0.272215	0.851378	-0.329910	-0.208445	0.864514	-0.324881	-0.213825	0.923955	-0.340598	-0.389344	0.447239	-0.335182	-0.389344	0.406177	-0.346428	-0.330765	0.408824	-0.330228	-0.333539	0.448090	-0.323169	-0.464441	0.139680	-0.415156	-0.322482	0.030625	-0.330671	-0.269350	0.042259	-0.408089	-0.244056	0.030174	-0.404364	-0.233712	0.894947	-0.753414	-0.219138	0.835288	-0.760714	-0.156576	0.843367	-0.747613	-0.162282	0.902805	-0.738904	-0.320234	0.439556	-0.754874	-0.338331	0.403443	-0.751781	-0.279782	0.382402	-0.741655	-0.268849	0.424981	-0.746544	-0.461392	0.144209	-0.678199	-0.317270	0.029463	-0.742865	-0.264008	0.038433	-0.664941	-0.238497	0.028300	-0.668465	
134	0.6700	-0.340745	1.673409	-0.545060	-0.293926	1.660934	-0.767734	-0.271473	1.660344	-0.342848	-0.190844	1.617671	-0.554170	-0.184281	1.166921	-0.429405	-0.175053	1.161984	-0.641516	-0.236382	1.222054	-0.384678	-0.233543	1.217680	-0.704624	-0.364082	1.201261	-0.486375	-0.365257	1.193962	-0.601443	-0.371709	1.206077	-0.540445	-0.285305	0.914900	-0.344462	-0.272591	0.858269	-0.329970	-0.208705	0.870913	-0.325047	-0.213668	0.930478	-0.340553	-0.390759	0.452671	-0.335785	-0.390155	0.411584	-0.346795	-0.331783	0.414979	-0.330083	-0.335050	0.454248	-0.323233	-0.460457	0.145226	-0.414062	-0.321935	0.031513	-0.331052	-0.268757	0.042776	-0.407648	-0.244073	0.030368	-0.403923	-0.233589	0.901744	-0.753462	-0.219252	0.842018	-0.760664	-0.156645	0.849871	-0.747597	-0.162109	0.909346	-0.738993	-0.320439	0.445521	-0.755109	-0.338028	0.409146	-0.752211	-0.279174	0.388828	-0.742448	-0.268820	0.431583	-0.747086	-0.457305	0.149574	-0.679847	-0.316608	0.030276	-0.742705	-0.263500	0.038843	-0.665250	-0.238322	0.028420	-0.668654	
135	0.6750	-0.340881	1.679808	-0.545400	-0.293801	1.667844	-0.767646	-0.271483	1.667347	-0.343485	-0.191081	1.624850	-0.554438	-0.183040	1.173852	-0.429623	-0.174128	1.168969	-0.641585	-0.235078	1.229476	-0.385093	-0.232598	1.225187	-0.704712	-0.362835	1.208535	-0.486342	-0.363961	1.201251	-0.601504	-0.370465	1.213450	-0.540453	-0.285305	0.921727	-0.344347	-0.272951	0.864977	-0.330056	-0.208961	0.877170	-0.325232	-0.213550	0.936860	-0.340501	-0.391892	0.457915	-0.336385	-0.390662	0.416791	-0.347141	-0.332519	0.420982	-0.329978	-0.336298	0.460250	-0.323364	-0.456295	0.150779	-0.412886	-0.321218	0.032654	-0.331408	-0.267966	0.043455	-0.407161	-0.243926	0.030631	-0.403457	-0.233526	0.908373	-0.753468	-0.219396	0.848581	-0.760561	-0.156744	0.856255	-0.747555	-0.162001	0.915768	-0.739070	-0.320465	0.451373	-0.755339	-0.337527	0.414740	-0.752642	-0.278375	0.395155	-0.743259	-0.268614	0.438095	-0.747635	-0.453009	0.154912	-0.681531	-0.315789	0.031253	-0.742621	-0.262863	0.039331	-0.665577	-0.238056	0.028557	-0.668850	
136	0.6800	-0.340979	1.686020	-0.545724	-0.293704	1.674556	-0.767530	-0.271532	1.674114	-0.344154	-0.191307	1.631844	-0.554687	-0.181856	1.180568	-0.429824	-0.173285	1.175683	-0.641666	-0.233865	1.236615	-0.385479	-0.231736	1.232401	-0.704796	-0.361639	1.215655	-0.486306	-0.362732	1.208376	-0.601543	-0.369252	1.220701	-0.540445	-0.285334	0.928346	-0.344262	-0.273319	0.871477	-0.330239	-0.209233	0.883255	-0.325439	-0.213470	0.943051	-0.340444	-0.392766	0.462934	-0.336993	-0.390876	0.421779	-0.347472	-0.332970	0.426817	-0.329889	-0.337292	0.466073	-0.323563	-0.452032	0.156304	-0.411654	-0.320270	0.034106	-0.331710	-0.266995	0.044332	-0.406617	-0.243577	0.030996	-0.402958	-0.233517	0.914818	-0.753435	-0.219570	0.854967	-0.760412	-0.156876	0.862495	-0.747479	-0.161951	0.922042	-0.739114	-0.320319	0.457067	-0.755574	-0.336844	0.420175	-0.753080	-0.277395	0.401339	-0.744073	-0.268242	0.444466	-0.748188	-0.448550	0.160175	-0.683237	-0.314776	0.032375	-0.742623	-0.262090	0.039909	-0.665926	-0.237681	0.028713	-0.669053	
